<?xml version="1.0" encoding="utf-8"?>
<!-- Generator: Adobe Illustrator 28.3.0, SVG Export Plug-In . SVG Version: 6.00 Build 0)  -->
<svg version="1.1" id="Capa_1" xmlns="http://www.w3.org/2000/svg" xmlns:xlink="http://www.w3.org/1999/xlink" x="0px" y="0px"
	 viewBox="0 0 512 512" style="enable-background:new 0 0 512 512;" xml:space="preserve">
<style type="text/css">
	.st0{fill:#E8C723;}
</style>
<g>
	<path class="st0" d="M433.9,252.8H497c8.3,0,15-6.7,15-15s-6.7-15-15-15h-57.1c7.2-45.3,3.9-76,3.7-77.6
		c-0.7-5.9-4.8-10.9-10.5-12.6c-22.8-7-42.7-14.1-59.9-21V74.5h51.5c6.2,17.5,22.9,30,42.4,30c24.8,0,45-20.2,45-45s-20.2-45-45-45
		c-19.6,0-36.2,12.5-42.4,30h-66.5c-8.3,0-15,6.7-15,15v39c-55.6-26.2-74-47.8-75.1-49.1c-6-8.2-17.9-8.3-23.9,0
		c-1.1,1.3-19.5,22.9-75.1,49.1v-39c0-8.3-6.7-15-15-15H87.4c-6.2-17.5-22.9-30-42.4-30c-24.8,0-45,20.2-45,45s20.2,45,45,45
		c19.6,0,36.2-12.5,42.4-30h51.5v37.1c-17.3,6.9-37.1,14-59.9,21c-5.7,1.7-9.8,6.7-10.5,12.6c-0.2,1.7-3.5,32.3,3.7,77.6H15
		c-8.3,0-15,6.7-15,15s6.7,15,15,15h63.1c3.3,13.9,7.3,27.2,12.2,41H49.1c-8.3,0-15,6.7-15,15s6.7,15,15,15h53.3
		c12.9,28.6,28.7,54.7,47.6,79.1H87.4c-6.2-17.5-22.9-30-42.4-30c-24.8,0-45,20.2-45,45s20.2,45,45,45c19.6,0,36.2-12.5,42.4-30
		h88.2c21.1,22.5,45.1,43.2,71.8,61.8c5.2,3.6,12,3.6,17.2,0c26.7-18.6,50.7-39.3,71.8-61.8h88.2c6.2,17.5,22.9,30,42.4,30
		c24.8,0,45-20.2,45-45s-20.2-45-45-45c-19.6,0-36.2,12.5-42.4,30H362c18.8-24.4,34.7-50.5,47.6-79.1h53.3c8.3,0,15-6.7,15-15
		s-6.7-15-15-15h-41.2C426.6,280.1,430.6,266.8,433.9,252.8L433.9,252.8z M467,44.5c8.3,0,15,6.7,15,15s-6.7,15-15,15s-15-6.7-15-15
		S458.7,44.5,467,44.5z M45,74.5c-8.3,0-15-6.7-15-15s6.7-15,15-15s15,6.7,15,15S53.3,74.5,45,74.5z M45,433c-8.3,0-15-6.7-15-15
		s6.7-15,15-15s15,6.7,15,15S53.3,433,45,433z M467,403c8.3,0,15,6.7,15,15s-6.7,15-15,15s-15-6.7-15-15S458.7,403,467,403z
		 M256,464.1c-70.4-51.5-120.9-119-144.8-203.3c-13.3-46.9-14-85.5-13.5-102.6c51-16.3,117.8-43,158.3-78.5
		c40.4,35.4,107.4,62.3,158.3,78.5c1,29.5-3.1,65.6-13.1,101.4C385.2,316.4,347.1,397.3,256,464.1L256,464.1z"/>
	<path class="st0" d="M320.2,218v-9.8c0-35.4-28.8-64.2-64.2-64.2s-64.2,28.8-64.2,64.2v9.8c-10.7,3.7-18.3,13.9-18.3,25.8v85.9
		c0,15.1,12.3,27.3,27.3,27.3h110.4c15.1,0,27.3-12.3,27.3-27.3v-85.9C338.5,231.9,330.9,221.7,320.2,218L320.2,218z M256,174
		c18.9,0,34.2,15.4,34.2,34.2v8.2h-68.4v-8.2C221.8,189.3,237.1,174,256,174L256,174z M308.5,327H203.5v-80.6h105.1L308.5,327
		L308.5,327z"/>
	<path class="st0" d="M256,266.4c-8.3,0-15,6.7-15,15V292c0,8.3,6.7,15,15,15s15-6.7,15-15v-10.6C271,273.2,264.3,266.4,256,266.4z"
		/>
</g>
</svg>
