<?xml version="1.0" encoding="utf-8"?>
<!-- Generator: Adobe Illustrator 28.3.0, SVG Export Plug-In . SVG Version: 6.00 Build 0)  -->
<svg version="1.1" id="Capa_1" xmlns:serif="http://www.serif.com/"
	 xmlns="http://www.w3.org/2000/svg" xmlns:xlink="http://www.w3.org/1999/xlink" x="0px" y="0px" viewBox="0 0 512 512"
	 style="enable-background:new 0 0 512 512;" xml:space="preserve">
<style type="text/css">
	.st0{fill-rule:evenodd;clip-rule:evenodd;fill:#E8C723;}
</style>
<g transform="matrix(1,0,0,1,-64,-64)">
	<g id="Icon">
		<g transform="matrix(1,0,0,1,8,0)">
			<path class="st0" d="M544,256v-64c0-22.1-17.9-40-40-40c-4.4,0-8,3.6-8,8s3.6,8,8,8c13.3,0,24,10.7,24,24v64c0,4.4,3.6,8,8,8
				S544,260.4,544,256z"/>
		</g>
		<g transform="matrix(1,0,0,1,33,-3.29692e-12)">
			<path class="st0" d="M388.3,124c-7.4-4.9-16.8-5.4-24.6-1.2C355.9,127,351,135.2,351,144v32c0,8.8,4.9,17,12.7,21.2
				c7.8,4.2,17.3,3.7,24.6-1.2l24-16c6.7-4.4,10.7-11.9,10.7-20s-4-15.5-10.7-20L388.3,124z M379.4,137.3l24,16
				c2.2,1.5,3.6,4,3.6,6.7s-1.3,5.2-3.6,6.7l-24,16c-2.5,1.6-5.6,1.8-8.2,0.4c-2.6-1.4-4.2-4.1-4.2-7.1v-32c0-3,1.6-5.7,4.2-7.1
				S377,135.7,379.4,137.3z"/>
		</g>
		<path class="st0" d="M504,392v40c0,2.1-0.8,4.2-2.3,5.7c-1.5,1.5-3.5,2.3-5.7,2.3H256c-4.4,0-8,3.6-8,8s3.6,8,8,8h240
			c6.4,0,12.5-2.5,17-7c4.5-4.5,7-10.6,7-17v-40h8c13.3,0,24-10.7,24-24v-64c0-13.3-10.7-24-24-24h-96c-13.3,0-24,10.7-24,24v64
			c0,13.3,10.7,24,24,24H504z M424,327.5V368c0,4.4,3.6,8,8,8h96c4.4,0,8-3.6,8-8v-40.5L493.3,356c-8.1,5.4-18.6,5.4-26.6,0
			L424,327.5z M536,304.1V304c0-4.4-3.6-8-8-8h-96c-4.4,0-8,3.6-8,8v0.1c0,2.6,1.3,5,3.6,6.5l48,32c2.7,1.8,6.2,1.8,8.9,0l48-32
			C534.7,309.2,536,306.7,536,304.1z"/>
		<path class="st0" d="M184,375.2V400c0,13.3,10.7,24,24,24s24-10.7,24-24v-23.6c10.4,1.2,20.3,5.3,28.5,11.9l19.8,15.9
			c0.8,4.8,3.2,9.3,6.7,12.8c4.5,4.5,10.6,7,17,7h0c6.4,0,12.5-2.5,17-7c4.5-4.5,7-10.6,7-17c0-24.6,0-103.4,0-128
			c0-6.4-2.5-12.5-7-17c-4.5-4.5-10.6-7-17-7h0c-6.4,0-12.5,2.5-17,7c-3.5,3.5-5.8,8-6.7,12.8l-19.8,15.9
			c-9.9,7.9-22.3,12.3-35,12.3H192c-22.1,0-40,17.9-40,40v0C152,355.4,165.7,371.5,184,375.2z M200,376v24c0,4.4,3.6,8,8,8
			s8-3.6,8-8v-24H200z M304,264L304,264c-2.2,0-4.2,0.8-5.7,2.3s-2.3,3.5-2.3,5.6v128c0,2.1,0.8,4.2,2.3,5.6s3.5,2.3,5.6,2.3h0
			c2.1,0,4.2-0.8,5.6-2.3s2.3-3.5,2.3-5.6V272c0-2.1-0.8-4.2-2.3-5.6S306.1,264,304,264z M280,288.6l-9.5,7.6
			c-11.1,8.9-24.5,14.2-38.5,15.5v48.6c14,1.3,27.5,6.6,38.5,15.5l9.5,7.6V288.6z M216,312h-24c-13.2,0-24,10.7-24,24v0
			c0,13.2,10.7,24,24,24h24V312z"/>
		<path class="st0" d="M352,344l32,0c4.4,0,8-3.6,8-8s-3.6-8-8-8l-32,0c-4.4,0-8,3.6-8,8S347.6,344,352,344z"/>
		<path class="st0" d="M357.7,309.7l16-16c3.1-3.1,3.1-8.2,0-11.3s-8.2-3.1-11.3,0l-16,16c-3.1,3.1-3.1,8.2,0,11.3
			S354.5,312.8,357.7,309.7z"/>
		<path class="st0" d="M346.3,373.7l16,16c3.1,3.1,8.2,3.1,11.3,0s3.1-8.2,0-11.3l-16-16c-3.1-3.1-8.2-3.1-11.3,0
			S343.2,370.5,346.3,373.7z"/>
		<path class="st0" d="M475.9,200H496c2.1,0,4.2,0.8,5.7,2.3c1.5,1.5,2.3,3.5,2.3,5.7v48c0,4.4,3.6,8,8,8c4.4,0,8-3.6,8-8v-48
			c0-6.4-2.5-12.5-7-17c-4.5-4.5-10.6-7-17-7h-12.1c2.7-7.5,4.1-15.6,4.1-24c0-39.7-32.3-72-72-72c-37,0-67.6,28-71.6,64H296v-24
			c0-22.1-17.9-40-40-40c-19.5,0-44.5,0-64,0c-22.1,0-40,17.9-40,40v24h-24c-22.1,0-40,17.9-40,40v256c0,22.1,17.9,40,40,40h150.6
			c-3.3,9.3-12.2,16-22.6,16h-16c-6.4,0-12.5,2.5-17,7c-4.5,4.5-7,10.6-7,17s2.5,12.5,7,17c4.5,4.5,10.6,7,17,7
			c36.2,0,123.8,0,160,0c6.4,0,12.5-2.5,17-7c4.5-4.5,7-10.6,7-17l0,0c0-6.4-2.5-12.5-7-17c-4.5-4.5-10.6-7-17-7h-16
			c-10.4,0-19.3-6.7-22.6-16H512c22.1,0,40-17.9,40-40v-32c0-4.4-3.6-8-8-8s-8,3.6-8,8v32c0,13.3-10.7,24-24,24H128
			c-13.3,0-24-10.7-24-24V192c0-13.3,10.7-24,24-24h24v16h-8c-6.4,0-12.5,2.5-17,7c-4.5,4.5-7,10.6-7,17v224c0,6.4,2.5,12.5,7,17
			c4.5,4.5,10.6,7,17,7h80c4.4,0,8-3.6,8-8s-3.6-8-8-8h-80c-2.1,0-4.2-0.8-5.7-2.3c-1.5-1.5-2.3-3.5-2.3-5.7V208
			c0-2.1,0.8-4.2,2.3-5.7c1.5-1.5,3.5-2.3,5.7-2.3h8.8c3.7,18.3,19.8,32,39.2,32c19.5,0,44.5,0,64,0c19.4,0,35.5-13.7,39.2-32h60.9
			c12.9,19.3,34.9,32,59.9,32S462.9,219.3,475.9,200z M400,520H240c-2.1,0-4.2,0.8-5.7,2.3c-1.5,1.5-2.3,3.5-2.3,5.7
			s0.8,4.2,2.3,5.7c1.5,1.5,3.5,2.3,5.7,2.3h160c2.1,0,4.2-0.8,5.7-2.3c1.5-1.5,2.3-3.5,2.3-5.7s-0.8-4.2-2.3-5.7
			C404.2,520.8,402.1,520,400,520z M344.8,488h-49.6c-1.2,5.9-3.7,11.4-7.2,16h64C348.5,499.4,346,493.9,344.8,488z M263.2,168
			c-3.7,18.2-19.9,32-39.2,32s-35.5-13.8-39.2-32H168v24c0,13.3,10.7,24,24,24h64c13.3,0,24-10.7,24-24v-24H263.2z M416,104
			c30.9,0,56,25.1,56,56s-25.1,56-56,56s-56-25.1-56-56S385.1,104,416,104z M344.4,168H296v16h52.1
			C346.3,178.9,345.1,173.5,344.4,168z M224,136c13.2,0,24,10.8,24,24s-10.8,24-24,24s-24-10.8-24-24S210.8,136,224,136z M280,152
			v-24c0-13.3-10.7-24-24-24h-64c-13.3,0-24,10.7-24,24v24h16.8c3.7-18.2,19.9-32,39.2-32s35.5,13.8,39.2,32H280z"/>
	</g>
</g>
</svg>
