<?xml version="1.0" encoding="utf-8"?>
<!-- Generator: Adobe Illustrator 28.3.0, SVG Export Plug-In . SVG Version: 6.00 Build 0)  -->
<svg version="1.1" id="Layer_1" xmlns="http://www.w3.org/2000/svg" xmlns:xlink="http://www.w3.org/1999/xlink" x="0px" y="0px"
	 viewBox="0 0 512 512" style="enable-background:new 0 0 512 512;" xml:space="preserve">
<style type="text/css">
	.st0{fill:#E8C723;}
</style>
<g id="Icons">
	<path class="st0" d="M474.4,443.2h-20.8V224.8c0-5.7-4.7-10.4-10.4-10.4h-62.4c-5.7,0-10.4,4.7-10.4,10.4v218.4h-20.8V266.4
		c0-5.7-4.7-10.4-10.4-10.4h-62.4c-5.7,0-10.4,4.7-10.4,10.4v176.8h-20.8V308c0-5.7-4.7-10.4-10.4-10.4h-62.4
		c-5.7,0-10.4,4.7-10.4,10.4v135.2h-20.8v-93.6c0-5.7-4.7-10.4-10.4-10.4H68.8c-5.7,0-10.4,4.7-10.4,10.4v93.6H37.6
		c-5.7,0-10.4,4.7-10.4,10.4c0,5.7,4.7,10.4,10.4,10.4h436.8c5.7,0,10.4-4.7,10.4-10.4C484.8,447.9,480.1,443.2,474.4,443.2
		L474.4,443.2z M120.8,443.2H79.2V360h41.6V443.2z M224.8,443.2h-41.6V318.4h41.6V443.2z M328.8,443.2h-41.6V276.8h41.6V443.2z
		 M432.8,443.2h-41.6v-208h41.6V443.2z"/>
	<path class="st0" d="M37.6,318.4c2.3,0,4.6-0.8,6.4-2.2l132.3-101.8h162.9c2.9,0,5.6-1.2,7.6-3.3L454.5,95l-11,44.1
		c-1.4,5.6,2,11.2,7.6,12.6c5.6,1.4,11.2-2,12.6-7.6l20.8-83.2c0.6-2.4,0.3-4.9-0.8-7.1c0.1,0.1,0.2,0.3,0.3,0.4
		c-0.1-0.2-0.2-0.3-0.3-0.5c-0.4-0.8-0.9-1.5-1.4-2.1c-0.1-0.2-0.3-0.4-0.4-0.6c-0.1-0.1-0.2-0.2-0.3-0.2c-2.6-2.4-6.2-3.4-9.6-2.5
		L388.7,69c-5.6,1.4-9,7-7.6,12.6c1.4,5.6,7,9,12.6,7.6l49.2-12.3L334.6,193.6H172.8c-2.3,0-4.5,0.7-6.3,2.2l-135.2,104
		c-4.5,3.4-5.4,9.9-2,14.4c0,0,0.1,0.1,0.1,0.1C31.3,316.9,34.4,318.4,37.6,318.4L37.6,318.4z"/>
</g>
</svg>
