<?xml version="1.0" encoding="utf-8"?>
<!-- Generator: Adobe Illustrator 28.3.0, SVG Export Plug-In . SVG Version: 6.00 Build 0)  -->
<svg version="1.1" id="Layer_1" xmlns="http://www.w3.org/2000/svg" xmlns:xlink="http://www.w3.org/1999/xlink" x="0px" y="0px"
	 viewBox="0 0 512 512" style="enable-background:new 0 0 512 512;" xml:space="preserve">
<style type="text/css">
	.st0{fill:#E8C723;}
</style>
<g>
	<path class="st0" d="M450.6,78c10.2,0,18.4-8.2,18.4-18.4s-8.2-18.4-18.4-18.4s-18.4,8.2-18.4,18.4S440.5,78,450.6,78z M450.6,54.3
		c2.9,0,5.4,2.4,5.4,5.4c0,2.9-2.4,5.4-5.4,5.4c-3,0-5.4-2.3-5.4-5.4C445.2,56.6,447.6,54.3,450.6,54.3z"/>
	<path class="st0" d="M471,11.5H93c-14.4,0-26.1,11.7-26.1,26.1v39.8H41C26.7,77.3,15,89.1,15,103.4v326.8
		c0,14.4,11.7,26.1,26.1,26.1h173.2V494c0,3.6,2.9,6.5,6.5,6.5h122.4c3.6,0,6.5-2.9,6.5-6.5v-37.7H419c14.4,0,26.1-11.7,26.1-26.1
		v-39.8H471c14.4,0,26.1-11.7,26.1-26.1V37.5C497,23.2,485.3,11.5,471,11.5L471,11.5z M80,37.5c0-7.2,5.9-13,13-13H471
		c7.2,0,13,5.9,13,13v57.2H236.7l-29.1-30.2c-2.2-2.3-5.4-3.6-8.5-3.6H135c-6.5,0-11.9,5.4-11.9,11.9v22H80L80,37.5z M41,443.3
		c-7.2,0-13-5.9-13-13V103.4c0-7.2,5.9-13,13-13h25.9v274.1c0,14.4,11.7,26.1,26.1,26.1h141.5c2.6,5,3.7,10.6,3.3,16.3h-10.1
		c-7.4,0-13.4,6.1-13.4,13.4v23.1H41z M275.5,306.9c1.3-2.3,3.7-3.8,6.4-3.8c4,0,7.3,3.3,7.3,7.3c0,2.6-1.4,5-3.6,6.4
		c-2.5,1.5-5.4,1.3-8.5-0.4c-0.4-0.2-0.8-0.5-0.9-0.9C273.8,311.5,274.8,308.4,275.5,306.9z M275.5,291.3c-4.7,1.6-8.8,4.8-11.2,9.3
		c-3.7,6.7-3.3,14.8,1.1,21.8c1.4,2.2,3.3,4,5.5,5.3c3.6,2,7.4,3.1,11.2,3.1c3.6,0,7.1-0.9,10.2-2.7c6.2-3.6,10.1-10.4,10.1-17.6
		c0-8.9-5.8-16.4-13.8-19.2v-33.5l57.6,104c-0.1,0.1-0.2,0.2-0.4,0.3c-20.4,5.3-33.7,24.4-32.7,44.7H251c1.2-20.4-12.3-39.5-33-45.3
		l57.6-103.7V291.3z M336.7,487.5H227.3l0.4-67.7h108.6c0.2,0,0.4,0.2,0.4,0.4V487.5z M432,430.2c0,7.2-5.9,13-13,13h-69.3v-23.1
		c0-7.4-6.1-13.4-13.4-13.4h-10.1c-0.5-5.7,0.8-11.3,3.3-16.3H432V430.2z M471,377.5H342.1c2.1-1.2,4.3-2.2,6.8-2.8
		c4.1-1.1,7.4-4,9.2-7.8c1.6-3.8,1.4-8.1-0.6-11.7L290.8,235c-1.7-3.2-5-5.2-8.7-5.2c-3.7,0.1-7.1,1.9-8.8,5.1l-66.8,120.2
		c-2,3.6-2.2,8-0.5,11.8c1.6,3.9,5,6.7,9.1,7.8c2.5,0.6,4.7,1.6,6.8,2.8H93c-7.2,0-13-5.9-13-13V107.8h44.2
		c6.5,0,11.9-5.4,11.9-11.9v-22h62.4l29.1,30.2c2.2,2.3,5.4,3.6,8.5,3.6H484v256.6C484,371.6,478.2,377.5,471,377.5L471,377.5z"/>
	<path class="st0" d="M406.2,78c10.2,0,18.4-8.2,18.4-18.4s-8.2-18.4-18.4-18.4c-10.2,0-18.4,8.2-18.4,18.4S396,78,406.2,78z
		 M406.2,54.3c2.9,0,5.4,2.4,5.4,5.4c0,2.9-2.4,5.4-5.4,5.4c-3,0-5.4-2.3-5.4-5.4C400.8,56.6,403.2,54.3,406.2,54.3z"/>
	<path class="st0" d="M361.7,78c10.2,0,18.4-8.2,18.4-18.4s-8.2-18.4-18.4-18.4s-18.4,8.2-18.4,18.4S351.6,78,361.7,78z M361.7,54.3
		c2.9,0,5.4,2.4,5.4,5.4c0,2.9-2.4,5.4-5.4,5.4c-3,0-5.4-2.3-5.4-5.4C356.4,56.6,358.8,54.3,361.7,54.3z"/>
	<path class="st0" d="M407.6,164.5c-3.8,3.8-6.2,8.6-7.1,13.7h-91.2V168c0-7-5.7-12.6-12.6-12.6h-29.4c-7,0-12.6,5.7-12.6,12.6v10.2
		h-91.1c-0.9-5-3.3-9.9-7.1-13.8c-9.9-9.7-26.7-9.5-36.3,0.1c-4.9,4.9-7.5,11.3-7.5,18.2c0,6.9,2.7,13.4,7.5,18.2
		c4.9,5,11.4,7.6,18.2,7.6c4.3,0,8.6-1,12.7-3.1c4.4-2.2,8.1-6,10.2-10.6c0.5-1.2,1-2.3,1.4-3.5h63.2
		c-34.4,16.8-60.3,48.3-69.3,86.3h-10.1c-7,0-12.6,5.7-12.6,12.6v29.4c0,7,5.7,12.6,12.6,12.6h29.4c7,0,12.6-5.7,12.6-12.6v-29.4
		c0-7-5.7-12.6-12.6-12.6H170c10.9-41,43.7-73.1,84.9-83v2.8c0,7,5.7,12.6,12.6,12.6h29.4c7,0,12.6-5.7,12.6-12.6v-2.8
		c41.1,9.9,73.9,42,84.9,83H389c-7,0-12.6,5.7-12.6,12.6v29.4c0,7,5.7,12.6,12.6,12.6h29.4c7,0,12.6-5.7,12.6-12.6v-29.4
		c0-7-5.7-12.6-12.6-12.6h-10.6c-9.1-38-35-69.6-69.3-86.3h63.4c1.2,3.6,3.3,6.8,6,9.5c4.9,5,11.4,7.6,18.2,7.6
		c4.3,0,8.6-1,12.7-3.1c4.4-2.2,8.1-6,10.2-10.6c5-10.6,3.3-22.2-4.7-30.3C434.1,154.8,417.3,154.9,407.6,164.5L407.6,164.5z
		 M149.3,189.3c-0.9,1.9-2.5,3.5-4.3,4.4c-6.7,3.4-12.6,1.2-15.7-2.1c-2.4-2.3-3.7-5.5-3.7-8.9c0-3.3,1.3-6.5,3.7-9
		c2.4-2.4,5.6-3.7,9-3.7c3.3,0,6.6,1.3,8.9,3.6C151.2,177.8,152,183.6,149.3,189.3z M175.7,319.2l-29,0.4l-0.4-29h29L175.7,319.2z
		 M418.2,319.2l-29,0.4l-0.4-29h29L418.2,319.2z M267.7,197.4l-0.2-9.8c0.2-0.7,0.2-1.4,0.1-2.2v-0.1c0-0.2,0.2-0.4,0.2-0.6
		c0-0.4-0.2-0.7-0.2-1l-0.2-15.3h29l0.2,15.3c-0.1,0.4-0.2,0.7-0.2,1.1c0,0.2,0.1,0.4,0.2,0.6v0.1c-0.2,1-0.1,1.9,0.2,2.8l0.2,8.8
		L267.7,197.4z M436.9,189.3c-0.9,1.9-2.5,3.5-4.3,4.4c-6.7,3.4-12.6,1.2-15.7-2.1c-2.4-2.3-3.7-5.5-3.7-8.9c0-3.3,1.3-6.5,3.7-9
		c2.4-2.4,5.6-3.7,9-3.7c3.3,0,6.6,1.3,8.9,3.6C438.8,177.8,439.5,183.6,436.9,189.3z"/>
</g>
</svg>
